<mxfile host="app.diagrams.net" modified="2021-12-06T17:45:20.747Z" agent="5.0 (Windows NT 10.0; Win64; x64) AppleWebKit/537.36 (KHTML, like Gecko) Chrome/96.0.4664.45 Safari/537.36" etag="ng_shk3UwjKI88sqijUd" version="15.8.9" type="github">
  <diagram id="xnvOLz4FWaza6KEx5_nk" name="Page-1">
    <mxGraphModel dx="723" dy="413" grid="1" gridSize="10" guides="1" tooltips="1" connect="1" arrows="1" fold="1" page="1" pageScale="1" pageWidth="1169" pageHeight="827" math="0" shadow="0">
      <root>
        <mxCell id="0" />
        <mxCell id="1" parent="0" />
        <mxCell id="JIK1ivKtX_PKAvRpLjPt-9" style="edgeStyle=orthogonalEdgeStyle;rounded=0;orthogonalLoop=1;jettySize=auto;html=1;exitX=1;exitY=0.5;exitDx=0;exitDy=0;entryX=0;entryY=0.5;entryDx=0;entryDy=0;endArrow=none;endFill=0;" edge="1" parent="1" source="JIK1ivKtX_PKAvRpLjPt-3" target="JIK1ivKtX_PKAvRpLjPt-7">
          <mxGeometry relative="1" as="geometry" />
        </mxCell>
        <mxCell id="JIK1ivKtX_PKAvRpLjPt-14" value="1" style="edgeLabel;html=1;align=center;verticalAlign=middle;resizable=0;points=[];" vertex="1" connectable="0" parent="JIK1ivKtX_PKAvRpLjPt-9">
          <mxGeometry x="-0.7889" y="1" relative="1" as="geometry">
            <mxPoint x="2" as="offset" />
          </mxGeometry>
        </mxCell>
        <mxCell id="JIK1ivKtX_PKAvRpLjPt-3" value="Diretor" style="whiteSpace=wrap;html=1;align=center;" vertex="1" parent="1">
          <mxGeometry x="150" y="80" width="100" height="40" as="geometry" />
        </mxCell>
        <mxCell id="JIK1ivKtX_PKAvRpLjPt-4" value="Departamento" style="whiteSpace=wrap;html=1;align=center;" vertex="1" parent="1">
          <mxGeometry x="520" y="80" width="100" height="40" as="geometry" />
        </mxCell>
        <mxCell id="JIK1ivKtX_PKAvRpLjPt-10" style="edgeStyle=orthogonalEdgeStyle;rounded=0;orthogonalLoop=1;jettySize=auto;html=1;exitX=1;exitY=0.5;exitDx=0;exitDy=0;entryX=0;entryY=0.5;entryDx=0;entryDy=0;endArrow=none;endFill=0;" edge="1" parent="1" source="JIK1ivKtX_PKAvRpLjPt-7" target="JIK1ivKtX_PKAvRpLjPt-4">
          <mxGeometry relative="1" as="geometry" />
        </mxCell>
        <mxCell id="JIK1ivKtX_PKAvRpLjPt-11" value="n" style="edgeLabel;html=1;align=center;verticalAlign=middle;resizable=0;points=[];" vertex="1" connectable="0" parent="JIK1ivKtX_PKAvRpLjPt-10">
          <mxGeometry x="0.72" y="1" relative="1" as="geometry">
            <mxPoint as="offset" />
          </mxGeometry>
        </mxCell>
        <mxCell id="JIK1ivKtX_PKAvRpLjPt-7" value="" style="shape=rhombus;perimeter=rhombusPerimeter;whiteSpace=wrap;html=1;align=center;" vertex="1" parent="1">
          <mxGeometry x="340" y="80" width="80" height="40" as="geometry" />
        </mxCell>
      </root>
    </mxGraphModel>
  </diagram>
</mxfile>
